<svg width="170" height="79" viewBox="0 0 170 79" fill="none" xmlns="http://www.w3.org/2000/svg">
<path d="M0 67.9542V0H32.0806V12.5179H15.9032V29.3787H32.0806V41.3856H15.9032V67.9542H0Z" fill="#EEEEF0"/>
<path d="M41.9516 67.9542V0H57.3065V67.9542H41.9516Z" fill="#EEEEF0"/>
<path d="M68.8226 67.9542V16.8608H84.4516V67.9542H68.8226Z" fill="#EEEEF0"/>
<path d="M94.5968 67.9542V16.8608H108.581V19.16C108.581 19.16 111.323 17.1163 112.968 16.3499C114.613 15.5835 121.194 13.7952 128.323 16.8608C135.452 19.9264 135.452 26.824 135.452 26.824V67.9542H119.823V26.824C119.823 26.824 116.717 25.5467 114.613 25.5467C112.509 25.5467 109.403 26.824 109.403 26.824V67.9542H94.5968Z" fill="#EEEEF0"/>
<path d="M145.597 58.2464V5.87574H160.952V16.8608H170V26.824H160.952C160.952 26.824 159.855 56.7136 160.952 58.2464C162.048 59.7792 163.694 59.7792 163.694 59.7792H170V68.4651H154.371C154.371 68.4651 149.883 66.9731 148.065 64.8886C146.206 62.7585 145.597 58.2464 145.597 58.2464Z" fill="#EEEEF0"/>
<path d="M0 78.3869V75.5158C0 75.3244 113.333 75.4361 170 75.5158V78.3869H0Z" fill="#F9E7A3"/>
</svg>
